# xmcd
#
# Track frame offsets: 
#        150
#        13444
#        24738
#        38234
#        48256
#        61775
#        79584
#        92003
#        105387
#        117316
#        130375
#        143351
#        153613
#
# Disc length: 2231 seconds
#
# Revision: 0
# Processed by: cddbd v1.5.2PL0 Copyright (c) Steve Scherf et al.
# Submitted via: ExactAudioCopy v0.95b3
#
DISCID=a308b50d
DTITLE=Albert King  - Let s Have a Natural Ball  FLAC
DYEAR=1900
DGENRE=
TTITLE0=I Walked All Night Long
TTITLE1=I Get Evil
TTITLE2=Don t Throw Your Love On Me So Strong
TTITLE3=This Morning
TTITLE4=I ll Do Anything You Say
TTITLE5=Ooh-Ee Baby
TTITLE6=Blues At Sunrise
TTITLE7=Let s Have A Natural Ball
TTITLE8=I ve Made Nights By Myself
TTITLE9=What Can I Do To Change Your Mind
TTITLE10=Dyna Flow
TTITLE11=Got To Be Some Changes Made
TTITLE12=Goin  To California
EXTD=
EXTT0=
EXTT1=
EXTT2=
EXTT3=
EXTT4=
EXTT5=
EXTT6=
EXTT7=
EXTT8=
EXTT9=
EXTT10=
EXTT11=
EXTT12=
PLAYORDER=
